<svg xmlns="http://www.w3.org/2000/svg" width="362.262" height="69" viewBox="0 0 362.262 69">
  <g id="Group_560" data-name="Group 560" transform="translate(2859.2 1299)">
    <path id="Path_1902" data-name="Path 1902" d="M182.9,1.71A1.674,1.674,0,0,1,184.569.042h9.386a1.852,1.852,0,0,1,1.835,1.836h0V41.591c0,8.26,5.632,14.475,14.1,14.475s14.183-6.216,14.183-14.35V1.836A1.852,1.852,0,0,1,225.909,0h9.428a1.683,1.683,0,0,1,1.669,1.71V42.3a27.055,27.055,0,0,1-54.106,0Z" transform="translate(-2965.801 -1299)" fill="#3f505d"/>
    <path id="Path_1903" data-name="Path 1903" d="M379.043,33.873c4.63-2.169,9.136-8.051,9.136-15.644C388.178,7.884,379.126,0,367.4,0H344.752a1.948,1.948,0,0,0-.709.125c-.042,0-.083.042-.167.083a1.476,1.476,0,0,0-.667.667c-.042.042-.042.125-.083.167a1.949,1.949,0,0,0-.125.709V67.038a1.869,1.869,0,0,0,1.877,1.877H368.7c12.014,0,21.442-7.968,21.442-18.981C390.139,40.84,384.257,35.542,379.043,33.873ZM355.932,14.6a1.674,1.674,0,0,1,1.669-1.669h9.553c4.839.083,8.093,2.253,8.093,7.175s-3.129,7.843-8.176,7.843H357.6a1.674,1.674,0,0,1-1.669-1.669Zm12.515,41.341H357.6a1.674,1.674,0,0,1-1.669-1.669V42.55a1.674,1.674,0,0,1,1.669-1.669h11.055c4.8,0,8.552,2.795,8.552,7.717,0,5.131-3.838,7.342-8.76,7.342Z" transform="translate(-3059.114 -1299)" fill="#3f505d"/>
    <path id="Path_1904" data-name="Path 1904" d="M486.6,1.877A1.954,1.954,0,0,1,488.477,0h9.136a1.954,1.954,0,0,1,1.877,1.877v65.16a1.954,1.954,0,0,1-1.877,1.877h-9.136a1.954,1.954,0,0,1-1.877-1.877Z" transform="translate(-3142.81 -1299)" fill="#3f505d"/>
    <path id="Path_1905" data-name="Path 1905" d="M582.524,0a32.286,32.286,0,0,1,23.194,8.927,1.785,1.785,0,0,1,.25,2.5c-.042.083-.125.125-.167.167l-5.84,6.049a1.536,1.536,0,0,1-2.378,0c-4-3.546-9.386-4.756-14.768-4.756-12.265,0-21.943,9.344-21.943,21.442a21.836,21.836,0,0,0,21.984,21.776h.042a22.566,22.566,0,0,0,14.642-5.131,1.741,1.741,0,0,1,2.378,0l5.924,6.132a1.84,1.84,0,0,1-.083,2.586A33,33,0,0,1,582.483,69a34.5,34.5,0,1,1-.125-69Z" transform="translate(-3178.538 -1299)" fill="#3f505d"/>
    <path id="Path_1906" data-name="Path 1906" d="M737.732,0a34.478,34.478,0,0,1,.042,68.957h0A34.183,34.183,0,0,1,703.4,35v-.417A34.282,34.282,0,0,1,737.732,0Zm0,56.025A21.279,21.279,0,0,0,759.3,34.583a21.505,21.505,0,1,0-43.009,0A21.149,21.149,0,0,0,737.732,56.025Z" transform="translate(-3269.169 -1299)" fill="#3f505d"/>
    <path id="Path_1907" data-name="Path 1907" d="M39.213,45H1.669A1.674,1.674,0,0,0,0,46.669V93.516a1.674,1.674,0,0,0,1.669,1.669h9.636a1.638,1.638,0,0,0,1.669-1.627V59.6A1.638,1.638,0,0,1,14.6,57.932H39.213c3.588,0,5.59-2.712,5.548-6.633C44.761,47.837,42.342,45,39.213,45Z" transform="translate(-2859.2 -1325.228)" fill="#4475ba"/>
    <path id="Path_1908" data-name="Path 1908" d="M37.252,37.67H20.941c-1.794,0-2.712,1.377-1.251,2.837L47.6,68.5a1.671,1.671,0,0,0,1.21.5H62.24a1.673,1.673,0,0,0,1.71-1.627,1.766,1.766,0,0,0-.5-1.251L48.474,51.1a1.7,1.7,0,0,1-.042-2.378,1.772,1.772,0,0,1,.709-.417c8.76-2.795,14.6-12.807,14.6-23.194C63.659,11.263,51.978,0,39.505,0H1.71A1.649,1.649,0,0,0,0,1.627v9.511a1.638,1.638,0,0,0,1.627,1.669H39.213c6.549,0,11.514,5.381,11.514,12.265S47.431,37.67,37.252,37.67Z" transform="translate(-2859.2 -1299)" fill="#3f505d"/>
  </g>
</svg>
